<svg xmlns="http://www.w3.org/2000/svg" width="1200" height="720" viewBox="0 0 1200 720" fill="none">
  <rect width="1200" height="720" rx="32" fill="#eefbf5"/>
  <rect x="44" y="44" width="1112" height="632" rx="24" fill="#ffffff" stroke="#d1fae5"/>
  <rect x="84" y="88" width="300" height="18" rx="9" fill="#065f46"/>
  <rect x="84" y="120" width="520" height="12" rx="6" fill="#6b7280"/>
  <rect x="84" y="170" width="320" height="460" rx="16" fill="#f8fafc" stroke="#e5e7eb"/>
  <rect x="436" y="170" width="320" height="460" rx="16" fill="#f8fafc" stroke="#e5e7eb"/>
  <rect x="788" y="170" width="320" height="460" rx="16" fill="#f8fafc" stroke="#e5e7eb"/>
  <rect x="108" y="198" width="94" height="26" rx="8" fill="#10b981"/>
  <rect x="108" y="246" width="272" height="14" rx="7" fill="#111827"/>
  <rect x="108" y="274" width="272" height="12" rx="6" fill="#9ca3af"/>
  <rect x="108" y="304" width="272" height="12" rx="6" fill="#9ca3af"/>
  <rect x="108" y="346" width="272" height="120" rx="12" fill="#ffffff" stroke="#e5e7eb"/>
  <rect x="108" y="480" width="272" height="120" rx="12" fill="#ffffff" stroke="#e5e7eb"/>
  <rect x="460" y="198" width="104" height="26" rx="8" fill="#3b82f6"/>
  <rect x="460" y="246" width="272" height="14" rx="7" fill="#111827"/>
  <rect x="460" y="274" width="272" height="12" rx="6" fill="#9ca3af"/>
  <rect x="460" y="346" width="272" height="254" rx="12" fill="#ffffff" stroke="#e5e7eb"/>
  <rect x="812" y="198" width="118" height="26" rx="8" fill="#c65a20"/>
  <rect x="812" y="246" width="272" height="14" rx="7" fill="#111827"/>
  <rect x="812" y="274" width="272" height="12" rx="6" fill="#9ca3af"/>
  <rect x="812" y="346" width="272" height="120" rx="12" fill="#ffffff" stroke="#e5e7eb"/>
  <rect x="812" y="480" width="272" height="120" rx="12" fill="#ffffff" stroke="#e5e7eb"/>
</svg>
